<svg id="Layer_1" data-name="Layer 1" xmlns="http://www.w3.org/2000/svg" viewBox="0 0 236.11 236.11"><title>instagram</title><path d="M4004.48,1181.54H3888.23c-30.29,0-53.63,23.35-53.63,53.63V1352c0,30.28,23.34,53.63,53.63,53.63h116.84c30.28,0,53.63-23.35,53.63-53.63v-54.81" transform="translate(-3828.6 -1175.54)" style="fill:none;stroke:#051138;stroke-linecap:round;stroke-linejoin:round;stroke-width:12px"/><path d="M4004.48,1181.54c15.14,0,29.44,4.93,39.37,14.86" transform="translate(-3828.6 -1175.54)" style="fill:none;stroke:#051138;stroke-linecap:round;stroke-linejoin:round;stroke-width:12px"/><path d="M4058.7,1275.52V1243" transform="translate(-3828.6 -1175.54)" style="fill:none;stroke:#051138;stroke-linecap:round;stroke-linejoin:round;stroke-width:12px"/><path d="M3910.5,1369.5H3878v-97.6h32.53Zm-1-127.51c-.12,21.58-32.91,21.58-33,0a16.49,16.49,0,0,1,16.49-16.5m126,89.79v54.22H3990V1322c0-11-.58-25-15.59-25-15.25,0-16.94,11.93-16.94,24.25v48.31h-28.91v-97.6h25.3v14.46H3955c3.92-7.43,14-13.14,28.26-13.14" transform="translate(-3828.6 -1175.54)" style="fill:none;stroke:#051138;stroke-linecap:round;stroke-linejoin:round;stroke-width:12px"/></svg>