<svg id="Layer_1" data-name="Layer 1" xmlns="http://www.w3.org/2000/svg" viewBox="0 0 243.31 206.15"><title>twitter</title><path d="M3506.92,1229l-17.73,8.08c.06.58.08,1.16.14,1.74a137.93,137.93,0,0,1-211.47,127.3,4.55,4.55,0,0,1,2.7-8.46l1.09.1a93.89,93.89,0,0,0,17.58-.07,130.48,130.48,0,0,0,45.68-12.69c-20.57-4.1-39.33-13.93-47.68-27.61M3496.7,1202.4l-16,11.67a48.38,48.38,0,0,0-87.81,32c.22,2.55.36,5.09.39,7.65a128,128,0,0,1-49.76-12.71,129.75,129.75,0,0,1-43.95-34.82,4.55,4.55,0,0,0-8,1.78h0c-4.8,19.44.47,53.78,18.77,65.15" transform="translate(-3269.61 -1187.44)" style="fill:none;stroke:#051138;stroke-linecap:round;stroke-linejoin:round;stroke-width:12px;fill-rule:evenodd"/><path d="M3408.75,1335c-12.27,7.22-27.62,9.89-44,8.87h-1" transform="translate(-3269.61 -1187.44)" style="fill:none;stroke:#051138;stroke-linecap:round;stroke-linejoin:round;stroke-width:12px;fill-rule:evenodd"/><path d="M3452.38,1306.48h0a46.59,46.59,0,0,0-42-46.36" transform="translate(-3269.61 -1187.44)" style="fill:none;stroke:#051138;stroke-linecap:round;stroke-linejoin:round;stroke-width:12px;fill-rule:evenodd"/><path d="M3283.88,1266.92c5.41,22.12,21.71,40.72,43.74,47.33" transform="translate(-3269.61 -1187.44)" style="fill:none;stroke:#051138;stroke-linecap:round;stroke-linejoin:round;stroke-width:12px;fill-rule:evenodd"/></svg>