<svg id="_Layer_" data-name="&lt;Layer&gt;" xmlns="http://www.w3.org/2000/svg" viewBox="0 0 1104 677.33"><title>Artboard 1</title><path d="M456.64,188a11,11,0,1,1,10.95-11A10.95,10.95,0,0,1,456.64,188Z" style="fill:none;stroke:#171640;stroke-linecap:round;stroke-miterlimit:10;stroke-width:8px"/><path d="M439.62,207.34a13,13,0,0,1,12.09-8.29h9.86a13,13,0,0,1,12.09,8.29" style="fill:none;stroke:#171640;stroke-linecap:round;stroke-miterlimit:10;stroke-width:8px"/><path d="M405.35,358.2V166.48c0-14.95,11.42-27.06,25.5-27.06h214c14.09,0,25.5,12.11,25.5,27.06V294.75l-.06,27.71" style="fill:none;stroke:#171640;stroke-linecap:round;stroke-miterlimit:10;stroke-width:8px"/><line x1="473.33" y1="304.78" x2="473.33" y2="332.28" style="fill:none;stroke:#171640;stroke-linecap:round;stroke-miterlimit:10;stroke-width:8px"/><line x1="495.17" y1="288.86" x2="495.17" y2="332.28" style="fill:none;stroke:#171640;stroke-linecap:round;stroke-miterlimit:10;stroke-width:8px"/><line x1="517.02" y1="272.94" x2="517.02" y2="332.28" style="fill:none;stroke:#171640;stroke-linecap:round;stroke-miterlimit:10;stroke-width:8px"/><line x1="538.87" y1="296.82" x2="538.87" y2="332.28" style="fill:none;stroke:#171640;stroke-linecap:round;stroke-miterlimit:10;stroke-width:8px"/><line x1="560.72" y1="283.55" x2="560.72" y2="332.28" style="fill:none;stroke:#171640;stroke-linecap:round;stroke-miterlimit:10;stroke-width:8px"/><line x1="582.57" y1="267.64" x2="582.57" y2="332.28" style="fill:none;stroke:#171640;stroke-linecap:round;stroke-miterlimit:10;stroke-width:8px"/><line x1="604.42" y1="251.72" x2="604.42" y2="332.28" style="fill:none;stroke:#171640;stroke-linecap:round;stroke-miterlimit:10;stroke-width:8px"/><path d="M468.41,276.46l45.7-33.37a3.8,3.8,0,0,1,5.19.67l17.15,21a4,4,0,0,0,5.52.71l65.3-47.66" style="fill:none;stroke:#49e1f2;stroke-linecap:round;stroke-miterlimit:10;stroke-width:8px"/><path d="M384.64,389.89V378a18.1,18.1,0,0,1,18.07-18.07H636a12.65,12.65,0,0,0,12.63-12.63v-6.14a18.1,18.1,0,0,1,18.07-18.07h80.14a18.09,18.09,0,0,1,18.06,18.07l.25,273.74H746" style="fill:none;stroke:#49e1f2;stroke-linecap:round;stroke-miterlimit:10;stroke-width:8px"/><line x1="527.16" y1="614.88" x2="745.99" y2="614.88" style="fill:none;stroke:#49e1f2;stroke-linecap:round;stroke-miterlimit:10;stroke-width:8px"/><path d="M492.67,656.22H346.29a15.5,15.5,0,0,1-15.49-15.48V414.05a15.51,15.51,0,0,1,15.49-15.49H492.67a15.5,15.5,0,0,1,15.48,15.49V640.74A15.49,15.49,0,0,1,492.67,656.22Z" style="fill:none;stroke:#171640;stroke-linecap:round;stroke-miterlimit:10;stroke-width:8px"/><line x1="413.69" y1="650.51" x2="413.69" y2="478.6" style="fill:none;stroke:#171640;stroke-linecap:round;stroke-miterlimit:10;stroke-width:8px"/><line x1="336.59" y1="564.84" x2="502.37" y2="564.84" style="fill:none;stroke:#171640;stroke-linecap:round;stroke-miterlimit:10;stroke-width:8px"/><line x1="336.59" y1="478.88" x2="502.37" y2="478.88" style="fill:none;stroke:#171640;stroke-linecap:round;stroke-miterlimit:10;stroke-width:8px"/><line x1="373.78" y1="543" x2="373.78" y2="506.16" style="fill:none;stroke:#49e1f2;stroke-linecap:round;stroke-miterlimit:10;stroke-width:8px"/><line x1="355.36" y1="524.58" x2="392.2" y2="524.58" style="fill:none;stroke:#49e1f2;stroke-linecap:round;stroke-miterlimit:10;stroke-width:8px"/><line x1="360.76" y1="622.88" x2="386.81" y2="596.83" style="fill:none;stroke:#49e1f2;stroke-linecap:round;stroke-miterlimit:10;stroke-width:8px"/><line x1="360.76" y1="596.83" x2="386.81" y2="622.88" style="fill:none;stroke:#49e1f2;stroke-linecap:round;stroke-miterlimit:10;stroke-width:8px"/><line x1="444.04" y1="521.86" x2="480.88" y2="521.86" style="fill:none;stroke:#49e1f2;stroke-linecap:round;stroke-miterlimit:10;stroke-width:8px"/><line x1="444.04" y1="595.54" x2="480.88" y2="595.54" style="fill:none;stroke:#49e1f2;stroke-linecap:round;stroke-miterlimit:10;stroke-width:8px"/><line x1="444.04" y1="620.1" x2="480.88" y2="620.1" style="fill:none;stroke:#49e1f2;stroke-linecap:round;stroke-miterlimit:10;stroke-width:8px"/><path d="M605,138V124.54a19.1,19.1,0,0,0-19.08-19.09h-96.2a19.11,19.11,0,0,0-19.09,19.09V138" style="fill:none;stroke:#171640;stroke-linecap:round;stroke-miterlimit:10;stroke-width:8px"/><path d="M955.34,165.22H870.68V88.39h84.66Z" style="fill:none;stroke:#49e1f2;stroke-linecap:round;stroke-miterlimit:10;stroke-width:8px"/><line x1="871.43" y1="110.37" x2="955.32" y2="110.37" style="fill:none;stroke:#49e1f2;stroke-linecap:round;stroke-miterlimit:10;stroke-width:8px"/><line x1="888.51" y1="97.41" x2="888.51" y2="81.73" style="fill:none;stroke:#171640;stroke-linecap:round;stroke-miterlimit:10;stroke-width:8px"/><line x1="937.51" y1="97.41" x2="937.51" y2="81.73" style="fill:none;stroke:#171640;stroke-linecap:round;stroke-miterlimit:10;stroke-width:8px"/><line x1="896.16" y1="162.84" x2="896.16" y2="111.13" style="fill:none;stroke:#49e1f2;stroke-linecap:round;stroke-miterlimit:10;stroke-width:8px"/><line x1="925.55" y1="163.23" x2="925.55" y2="111.13" style="fill:none;stroke:#49e1f2;stroke-linecap:round;stroke-miterlimit:10;stroke-width:8px"/><line x1="871.01" y1="133.47" x2="955.38" y2="133.47" style="fill:none;stroke:#49e1f2;stroke-linecap:round;stroke-miterlimit:10;stroke-width:8px"/><line x1="493.63" y1="190.38" x2="630.87" y2="190.38" style="fill:none;stroke:#49e1f2;stroke-linecap:round;stroke-miterlimit:10;stroke-width:8px"/><line x1="493.63" y1="175.01" x2="630.87" y2="175.01" style="fill:none;stroke:#49e1f2;stroke-linecap:round;stroke-miterlimit:10;stroke-width:8px"/><path d="M303,492.35c-86,72.48-210.39,45.24-259.79-47" style="fill:none;stroke:#d8d8d8;stroke-linecap:round;stroke-miterlimit:10;stroke-width:8px"/><path d="M299.06,524.17l4.5-30a2.84,2.84,0,0,0-2.38-3.23l-27.54-4.12" style="fill:none;stroke:#d8d8d8;stroke-linecap:round;stroke-miterlimit:10;stroke-width:8px"/><path d="M919.71,319.27C910.12,207.18,802.93,138.51,702.78,168.8" style="fill:none;stroke:#d8d8d8;stroke-linecap:round;stroke-miterlimit:10;stroke-width:8px"/><path d="M939.44,294l-18.05,24.4a2.83,2.83,0,0,1-4,.6L895,302.44" style="fill:none;stroke:#d8d8d8;stroke-linecap:round;stroke-miterlimit:10;stroke-width:8px"/><path d="M218.6,416H36.11A18.94,18.94,0,0,1,17.17,397V168.67a2.68,2.68,0,0,1,.77-1.87l51.51-51.51a2.67,2.67,0,0,1,1.88-.78H229.38a19,19,0,0,1,19,19v203" style="fill:none;stroke:#171640;stroke-linecap:round;stroke-miterlimit:10;stroke-width:8px"/><path d="M17.17,167.58h41.4a11.77,11.77,0,0,0,11.76-11.76V114.51" style="fill:none;stroke:#171640;stroke-linecap:round;stroke-miterlimit:10;stroke-width:8px"/><circle cx="133.04" cy="269.56" r="93.05" style="fill:none;stroke:#49e1f2;stroke-linecap:round;stroke-miterlimit:10;stroke-width:8px"/><path d="M292.06,397.87,262.18,368a55.91,55.91,0,0,0-33.49-16.05l-1.07-.11A11.42,11.42,0,0,0,215,364.17l.31,3.6a44.5,44.5,0,0,0,12.87,27.64L262,429.24a21.72,21.72,0,0,0,32.15-1.58C301.38,418.92,300.08,405.89,292.06,397.87Z" style="fill:none;stroke:#49e1f2;stroke-linecap:round;stroke-miterlimit:10;stroke-width:8px"/><line x1="218.45" y1="354.96" x2="198.84" y2="335.36" style="fill:none;stroke:#49e1f2;stroke-linecap:round;stroke-miterlimit:10;stroke-width:8px"/><path d="M199.3,254.39a67.82,67.82,0,0,0-8.36-20.47" style="fill:none;stroke:#49e1f2;stroke-linecap:round;stroke-miterlimit:10;stroke-width:8px"/><path d="M179,219.46a69,69,0,0,0-9.82-7.48" style="fill:none;stroke:#49e1f2;stroke-linecap:round;stroke-miterlimit:10;stroke-width:8px"/><path d="M109.46,297.32c3.72,7.51,12.88,12.82,23.58,12.82,14,0,25.36-9.08,25.36-20.29,0-15.21-11.83-18.6-25.36-20.29-17.51-2.18-25.35-9.08-25.35-20.28S119,229,133,229c10.43,0,19.38,5,23.28,12.22" style="fill:none;stroke:#171640;stroke-linecap:round;stroke-miterlimit:10;stroke-width:8px"/><line x1="133.04" y1="217.16" x2="133.04" y2="321.97" style="fill:none;stroke:#171640;stroke-linecap:round;stroke-miterlimit:10;stroke-width:8px"/><line x1="405.75" y1="447.43" x2="421.23" y2="447.43" style="fill:none;stroke:#171640;stroke-linecap:round;stroke-miterlimit:10;stroke-width:8px"/><line x1="434.5" y1="447.43" x2="449.99" y2="447.43" style="fill:none;stroke:#171640;stroke-linecap:round;stroke-miterlimit:10;stroke-width:8px"/><line x1="463.26" y1="447.43" x2="478.74" y2="447.43" style="fill:none;stroke:#171640;stroke-linecap:round;stroke-miterlimit:10;stroke-width:8px"/><line x1="882.54" y1="441.74" x2="958.25" y2="441.74" style="fill:none;stroke:#49e1f2;stroke-linecap:round;stroke-miterlimit:10;stroke-width:8px"/><line x1="998.72" y1="441.74" x2="1056.18" y2="441.74" style="fill:none;stroke:#49e1f2;stroke-linecap:round;stroke-miterlimit:10;stroke-width:8px"/><line x1="918.94" y1="425.36" x2="1056.18" y2="425.36" style="fill:none;stroke:#49e1f2;stroke-linecap:round;stroke-miterlimit:10;stroke-width:8px"/><line x1="1004.64" y1="391.52" x2="1056.18" y2="391.52" style="fill:none;stroke:#171640;stroke-linecap:round;stroke-miterlimit:10;stroke-width:8px"/><path d="M1076.12,650.26H864.59a18.94,18.94,0,0,1-19-19V403a2.64,2.64,0,0,1,.78-1.87l51.51-51.51a2.68,2.68,0,0,1,1.87-.77h158.06a18.94,18.94,0,0,1,18.94,18.94Z" style="fill:none;stroke:#171640;stroke-linecap:round;stroke-miterlimit:10;stroke-width:8px"/><path d="M845.64,401.88H887a11.75,11.75,0,0,0,11.76-11.76v-41.3" style="fill:none;stroke:#171640;stroke-linecap:round;stroke-miterlimit:10;stroke-width:8px"/><path d="M1025.23,564.22l12.38,34a2.21,2.21,0,0,1-2.87,2.83l-11.11-4.24a2.21,2.21,0,0,0-2.72,1l-5.79,10.39a2.21,2.21,0,0,1-4-.32l-12.38-34" style="fill:none;stroke:#171640;stroke-linecap:round;stroke-miterlimit:10;stroke-width:8px"/><path d="M997.41,573.87l-17.27,47.58a2.22,2.22,0,0,1-4.14.06l-4.76-12a2.23,2.23,0,0,0-3.11-1.13l-11.39,6.14a2.22,2.22,0,0,1-3.14-2.7l16.53-46.06" style="fill:none;stroke:#171640;stroke-linecap:round;stroke-miterlimit:10;stroke-width:8px"/><path d="M996.71,574c-4.58,0-7.53-10-11.67-11.31S972.52,567.56,969,565s-.16-12.42-2.78-16-13-3.3-14.37-7.59c-1.35-4.13,7.17-10,7.17-14.59s-8.52-10.46-7.17-14.6,11.78-4,14.37-7.59-.82-13.39,2.78-16,11.81,3.68,16.09,2.29,7.09-11.31,11.67-11.31,7.53,10,11.67,11.31,12.52-4.89,16.09-2.29.16,12.41,2.78,16,13,3.3,14.38,7.59c1.34,4.13-7.18,10-7.18,14.59s8.52,10.46,7.18,14.59c-1.4,4.29-11.78,4-14.38,7.59s.82,13.4-2.78,16-11.81-3.69-16.09-2.3S1001.29,574,996.71,574Z" style="fill:none;stroke:#49e1f2;stroke-linecap:round;stroke-miterlimit:10;stroke-width:8px"/><path d="M975.44,527.18,990,542.54a2,2,0,0,0,2.76.16l23.51-34" style="fill:none;stroke:#49e1f2;stroke-linecap:round;stroke-miterlimit:10;stroke-width:8px"/><circle cx="335.35" cy="73.31" r="40.7" style="fill:none;stroke:#49e1f2;stroke-linecap:round;stroke-miterlimit:10;stroke-width:8px"/><line x1="335.35" y1="75.8" x2="335.35" y2="55.46" style="fill:none;stroke:#171640;stroke-linecap:round;stroke-miterlimit:10;stroke-width:8px"/><line x1="335.35" y1="75.8" x2="355.7" y2="75.8" style="fill:none;stroke:#171640;stroke-linecap:round;stroke-miterlimit:10;stroke-width:8px"/><line x1="320.09" y1="16.33" x2="350.61" y2="16.33" style="fill:none;stroke:#171640;stroke-linecap:round;stroke-miterlimit:10;stroke-width:8px"/></svg>