<svg id="Layer_1" data-name="Layer 1" xmlns="http://www.w3.org/2000/svg" viewBox="0 0 41.04 47.48"><title>Prancheta 2</title><path d="M23.94.17c-.67-.39-1.22-.08-1.22.69l0,14.5a2.68,2.68,0,0,0,1.21,2.11l15.84,9.14c.67.39,1.31.08,1.31-.7l0-14.49a2.7,2.7,0,0,0-1.22-2.11L23.94.17Z" style="fill:#171640"/><path d="M35.46,10.85,19.62,20a2.66,2.66,0,0,0-1.21,2.1l0,14.5c0,.77.55,1.09,1.22.7l15.84-9.15a2.64,2.64,0,0,0,1.21-2.1l0-14.5c0-.77-.55-1.08-1.22-.7Z" style="fill:#49e1f2"/><path d="M17.05.17,1.22,9.31A2.67,2.67,0,0,0,0,11.42L0,25.91c0,.78.55,1.09,1.22.7L17.1,17.47a2.72,2.72,0,0,0,1.22-2.11l0-14.5c0-.77-.63-1.08-1.31-.69Z" style="fill:#49e1f2"/><path d="M5.67,20.87c-.68-.39-1.23-.08-1.23.7l0,14.49a2.67,2.67,0,0,0,1.22,2.11l15.83,9.14c.68.39,1.31.08,1.31-.69l0-14.5A2.65,2.65,0,0,0,21.5,30L5.67,20.87Z" style="fill:#171640"/></svg>