<svg id="Layer_1" data-name="Layer 1" xmlns="http://www.w3.org/2000/svg" viewBox="0 0 927.65 570.32"><title>flow</title><path d="M501.6,437H685.79a3.44,3.44,0,0,1,3.45,3.44v37a3.44,3.44,0,0,0,5.88,2.43L737,438a3.47,3.47,0,0,1,2.44-1h23.3A28.31,28.31,0,0,0,791,408.71V354.78a28.31,28.31,0,0,0-28.31-28.32H498.05a28.32,28.32,0,0,0-28.32,28.32v53.93A28.32,28.32,0,0,0,498.05,437h23.3" transform="translate(-131.37 -322.46)" style="fill:none;stroke:#49e1f2;stroke-linecap:round;stroke-linejoin:round;stroke-width:8px"/><path d="M651.71,736.3l-8.62-61H628.2l-8.62,61a5.64,5.64,0,0,0,1.42,4.61l10.46,11.44a5.67,5.67,0,0,0,8.37,0l10.45-11.44A5.61,5.61,0,0,0,651.71,736.3Z" transform="translate(-131.37 -322.46)" style="fill:none;stroke:#49e1f2;stroke-linecap:round;stroke-linejoin:round;stroke-width:8px"/><line x1="511.72" y1="352.82" x2="520.71" y2="336.38" style="fill:none;stroke:#49e1f2;stroke-linecap:round;stroke-linejoin:round;stroke-width:8px"/><line x1="487.83" y1="336.38" x2="496.82" y2="352.82" style="fill:none;stroke:#49e1f2;stroke-linecap:round;stroke-linejoin:round;stroke-width:8px"/><path d="M466.61,584.4a47.9,47.9,0,1,1,47.9-47.9A47.9,47.9,0,0,1,466.61,584.4Z" transform="translate(-131.37 -322.46)" style="fill:none;stroke:#171640;stroke-linecap:round;stroke-linejoin:round;stroke-width:8px"/><path d="M635.65,632.9a47.9,47.9,0,1,1,47.9-47.9A47.9,47.9,0,0,1,635.65,632.9Z" transform="translate(-131.37 -322.46)" style="fill:none;stroke:#49e1f2;stroke-linecap:round;stroke-linejoin:round;stroke-width:8px"/><path d="M561.21,690.15a56.71,56.71,0,0,1,52.89-36.24h43.09a56.72,56.72,0,0,1,52.9,36.25" transform="translate(-131.37 -322.46)" style="fill:none;stroke:#49e1f2;stroke-linecap:round;stroke-linejoin:round;stroke-width:8px"/><path d="M392.17,641.65a56.7,56.7,0,0,1,52.89-36.24h43.09A56.71,56.71,0,0,1,541,641.65" transform="translate(-131.37 -322.46)" style="fill:none;stroke:#171640;stroke-linecap:round;stroke-linejoin:round;stroke-width:8px"/><path d="M804.68,588.83a47.9,47.9,0,1,1,47.9-47.9A47.89,47.89,0,0,1,804.68,588.83Z" transform="translate(-131.37 -322.46)" style="fill:none;stroke:#171640;stroke-linecap:round;stroke-linejoin:round;stroke-width:8px"/><path d="M730.24,646.08a56.73,56.73,0,0,1,52.9-36.24h43.09a56.71,56.71,0,0,1,52.89,36.25" transform="translate(-131.37 -322.46)" style="fill:none;stroke:#171640;stroke-linecap:round;stroke-linejoin:round;stroke-width:8px"/><path d="M753.57,798.39a49.16,49.16,0,0,0-33.46-13.15H551.18a49.16,49.16,0,0,0-33.46,13.15l-65.57,60.93c-11.32,10.52-3.87,29.46,11.58,29.46H807.56c15.45,0,22.89-18.94,11.58-29.46Z" transform="translate(-131.37 -322.46)" style="fill:none;stroke:#49e1f2;stroke-linecap:round;stroke-linejoin:round;stroke-width:8px"/><polygon points="540.11 528.02 468.44 528.02 484.6 489.54 523.95 489.54 540.11 528.02" style="fill:none;stroke:#171640;stroke-linecap:round;stroke-linejoin:round;stroke-width:8px"/><path d="M1028.27,711.08l-3.58-9.8a27.43,27.43,0,0,1,.61-12.09l8.29-32.72h0a26.73,26.73,0,0,0,.85-9.75c-1.25-13.22-10.41-23.7-23.67-24.36-15.52-.77-26.55,11.58-26.55,26.93a26.89,26.89,0,0,0,.9,6.94c.19.74.4,1.47.57,2.21l8,30.88a27.4,27.4,0,0,1,.24,14.1l-4.21,7.66" transform="translate(-131.37 -322.46)" style="fill:none;stroke:#171640;stroke-linecap:round;stroke-linejoin:round;stroke-width:8px"/><path d="M861.21,389H893a8.06,8.06,0,0,1,8.06,8.06v4.15a0,0,0,0,1,0,0H853.14a0,0,0,0,1,0,0v-4.15A8.06,8.06,0,0,1,861.21,389Z" style="fill:none;stroke:#171640;stroke-linecap:round;stroke-linejoin:round;stroke-width:8px"/><path d="M865.85,401.23h24.5a29.7,29.7,0,0,1,29.7,29.7v0a0,0,0,0,1,0,0H836.15a0,0,0,0,1,0,0v0A29.7,29.7,0,0,1,865.85,401.23Z" style="fill:none;stroke:#171640;stroke-linecap:round;stroke-linejoin:round;stroke-width:8px"/><path d="M1027.71,735.49a2.91,2.91,0,0,1,2.91,2.91v5.38" transform="translate(-131.37 -322.46)" style="fill:none;stroke:#171640;stroke-linecap:round;stroke-linejoin:round;stroke-width:8px"/><rect x="830.59" y="430.93" width="93.06" height="13.28" rx="6.64" style="fill:none;stroke:#171640;stroke-linecap:round;stroke-linejoin:round;stroke-width:8px"/><line x1="97.52" y1="135.69" x2="145.64" y2="135.69" style="fill:none;stroke:#49e1f2;stroke-linecap:round;stroke-miterlimit:10;stroke-width:8px"/><line x1="171.37" y1="135.69" x2="207.89" y2="135.69" style="fill:none;stroke:#49e1f2;stroke-linecap:round;stroke-miterlimit:10;stroke-width:8px"/><line x1="120.65" y1="125.28" x2="207.89" y2="125.28" style="fill:none;stroke:#49e1f2;stroke-linecap:round;stroke-miterlimit:10;stroke-width:8px"/><line x1="175.13" y1="103.77" x2="207.89" y2="103.77" style="fill:none;stroke:#171640;stroke-linecap:round;stroke-miterlimit:10;stroke-width:8px"/><path d="M351.93,590.7H217.48a12.06,12.06,0,0,1-12-12.05V433.51a1.67,1.67,0,0,1,.5-1.19l32.74-32.74a1.65,1.65,0,0,1,1.19-.49H340.33a12,12,0,0,1,12,12Z" transform="translate(-131.37 -322.46)" style="fill:none;stroke:#171640;stroke-linecap:round;stroke-miterlimit:10;stroke-width:8px"/><path d="M205.43,432.81h26.32a7.46,7.46,0,0,0,7.47-7.47V399.09" transform="translate(-131.37 -322.46)" style="fill:none;stroke:#171640;stroke-linecap:round;stroke-miterlimit:10;stroke-width:8px"/><polygon points="47.13 152.03 53.21 158.26 45.8 165.49 42.5 168.71 34.93 160.97 9.88 135.31 9.75 135.18 20.49 124.72 39.24 143.94 47.13 152.03" style="fill:none;stroke:#49e1f2;stroke-linecap:round;stroke-linejoin:round;stroke-width:8px"/><path d="M140.32,446.1c-2.91,2.85-2.58,7.93.72,11.32l10.59-10.31C148.29,443.7,143.26,443.26,140.32,446.1Z" transform="translate(-131.37 -322.46)" style="fill:none;stroke:#49e1f2;stroke-linecap:round;stroke-linejoin:round;stroke-width:8px"/><polygon points="104.83 213.18 96.17 221.63 43.62 167.82 45.79 165.72 52.3 159.36 104.83 213.18" style="fill:none;stroke:#49e1f2;stroke-linecap:round;stroke-linejoin:round;stroke-width:8px"/><polygon points="105.28 213.74 113.74 230.99 96.71 222.11 105.28 213.74" style="fill:none;stroke:#49e1f2;stroke-linecap:round;stroke-linejoin:round;stroke-width:8px"/><polyline points="11.29 133.95 9.88 135.31 4 141.04 33.25 171.06 39.67 177.63" style="fill:none;stroke:#49e1f2;stroke-linecap:round;stroke-linejoin:round;stroke-width:8px"/><path d="M932.44,773.42l11.71,32.17a2.09,2.09,0,0,1-2.71,2.68l-10.52-4a2.09,2.09,0,0,0-2.58.93L922.87,815a2.09,2.09,0,0,1-3.8-.3l-11.72-32.18" transform="translate(-131.37 -322.46)" style="fill:none;stroke:#171640;stroke-linecap:round;stroke-miterlimit:10;stroke-width:8px"/><path d="M906.1,782.55l-16.34,45a2.1,2.1,0,0,1-3.92.06l-4.52-11.34a2.1,2.1,0,0,0-2.94-1.07l-10.78,5.81a2.1,2.1,0,0,1-3-2.56l15.64-43.59" transform="translate(-131.37 -322.46)" style="fill:none;stroke:#171640;stroke-linecap:round;stroke-miterlimit:10;stroke-width:8px"/><path d="M905.44,782.66c-4.34,0-7.13-9.43-11.05-10.71s-11.85,4.63-15.23,2.17S879,762.37,876.53,759s-12.29-3.12-13.61-7.18c-1.27-3.91,6.79-9.48,6.79-13.81s-8.06-9.9-6.79-13.82,11.15-3.81,13.61-7.18-.78-12.68,2.63-15.16,11.18,3.49,15.23,2.17,6.71-10.71,11.05-10.71,7.13,9.44,11,10.71,11.86-4.63,15.23-2.17.16,11.75,2.64,15.16,12.29,3.13,13.6,7.18-6.78,9.48-6.78,13.82,8.06,9.9,6.78,13.81c-1.31,4.06-11.15,3.81-13.6,7.19s.77,12.67-2.64,15.15-11.17-3.48-15.23-2.16S909.78,782.66,905.44,782.66Z" transform="translate(-131.37 -322.46)" style="fill:none;stroke:#49e1f2;stroke-linecap:round;stroke-miterlimit:10;stroke-width:8px"/><path d="M885.31,738.35l13.75,14.55a1.93,1.93,0,0,0,2.61.15l22.26-32.22" transform="translate(-131.37 -322.46)" style="fill:none;stroke:#49e1f2;stroke-linecap:round;stroke-miterlimit:10;stroke-width:8px"/><path d="M439.57,816.67c-112.4,4.56-194-93.16-176.52-196.32" transform="translate(-131.37 -322.46)" style="fill:none;stroke:#d8d8d8;stroke-linecap:round;stroke-miterlimit:10;stroke-width:8px"/><path d="M417,839.41l21.94-21a2.83,2.83,0,0,0,.1-4l-19.24-20.13" transform="translate(-131.37 -322.46)" style="fill:none;stroke:#d8d8d8;stroke-linecap:round;stroke-miterlimit:10;stroke-width:8px"/><line x1="462.63" y1="60.44" x2="478.11" y2="60.44" style="fill:none;stroke:#171640;stroke-linecap:round;stroke-miterlimit:10;stroke-width:8px"/><line x1="491.38" y1="60.44" x2="506.87" y2="60.44" style="fill:none;stroke:#171640;stroke-linecap:round;stroke-miterlimit:10;stroke-width:8px"/><line x1="520.14" y1="60.44" x2="535.62" y2="60.44" style="fill:none;stroke:#171640;stroke-linecap:round;stroke-miterlimit:10;stroke-width:8px"/></svg>