<svg id="_Layer_" data-name="&lt;Layer&gt;" xmlns="http://www.w3.org/2000/svg" viewBox="0 0 729.07 642.27"><title>archive</title><path d="M1655.54,578.91s56.81,13.77,67.27,21.29c22.68,16.29,34.53,63.12,38.11,89.38,3,21.84,17.35,45.83,17.35,45.83" transform="translate(-1053.2 -285.54)" style="fill:none;stroke:#49e1f2;stroke-linecap:round;stroke-miterlimit:10;stroke-width:8px"/><path d="M1698.24,635c-15.9-13.71-28.46-11.48-40.1-20.11-22.65-16.8-16.26-12.47-37-27.71-12.32-9-25-15.46-34.21-9-6.51,4.57-6.88,15.45-.88,24.81,7.32,11.43,47.8,52.51,55.36,60.8a13.47,13.47,0,0,1,3.24,6.29c2.69,12.78,11.12,48.89,62.55,55.82" transform="translate(-1053.2 -285.54)" style="fill:none;stroke:#49e1f2;stroke-linecap:round;stroke-miterlimit:10;stroke-width:8px"/><path d="M1655.39,740.57c14.76,4.45,21.52,19,21.52,19" transform="translate(-1053.2 -285.54)" style="fill:none;stroke:#49e1f2;stroke-linecap:round;stroke-miterlimit:10;stroke-width:8px"/><path d="M1407.79,508.93h38a5.81,5.81,0,0,0,5.81-5.81V465.41" transform="translate(-1053.2 -285.54)" style="fill:none;stroke:#171640;stroke-linecap:round;stroke-miterlimit:10;stroke-width:8px"/><line x1="463.06" y1="257.42" x2="539.33" y2="257.42" style="fill:none;stroke:#171640;stroke-linecap:round;stroke-miterlimit:10;stroke-width:8px"/><line x1="389.09" y1="257.42" x2="432.59" y2="257.42" style="fill:none;stroke:#171640;stroke-linecap:round;stroke-miterlimit:10;stroke-width:8px"/><line x1="389.09" y1="289.61" x2="504.36" y2="289.61" style="fill:none;stroke:#171640;stroke-linecap:round;stroke-miterlimit:10;stroke-width:8px"/><line x1="389.09" y1="386.17" x2="487.09" y2="386.17" style="fill:none;stroke:#171640;stroke-linecap:round;stroke-miterlimit:10;stroke-width:8px"/><line x1="480.75" y1="353.98" x2="529.99" y2="353.98" style="fill:none;stroke:#171640;stroke-linecap:round;stroke-miterlimit:10;stroke-width:8px"/><line x1="389.09" y1="353.98" x2="452.05" y2="353.98" style="fill:none;stroke:#171640;stroke-linecap:round;stroke-miterlimit:10;stroke-width:8px"/><line x1="438.84" y1="321.79" x2="506.64" y2="321.79" style="fill:none;stroke:#171640;stroke-linecap:round;stroke-miterlimit:10;stroke-width:8px"/><line x1="389.09" y1="321.79" x2="408.96" y2="321.79" style="fill:none;stroke:#171640;stroke-linecap:round;stroke-miterlimit:10;stroke-width:8px"/><path d="M1630.09,562.36V478.84a13.67,13.67,0,0,0-13.67-13.67H1454.15a13.67,13.67,0,0,0-9.66,4l-35.75,35.75a13.66,13.66,0,0,0-4,9.67V762.44a13.67,13.67,0,0,0,13.67,13.67h198a13.67,13.67,0,0,0,13.67-13.67V694.07" transform="translate(-1053.2 -285.54)" style="fill:none;stroke:#171640;stroke-linecap:round;stroke-miterlimit:10;stroke-width:8px"/><path d="M1221.54,726.65l40.12,149.76a13.6,13.6,0,0,0,13.13,10.08h0a15.44,15.44,0,0,0,14.91-11.44l54.74-204.27a8.35,8.35,0,0,1,7.55-6h48c3.28,0,4,2.9,4.36,6l1,9.16a16.07,16.07,0,0,0,16,14.24h188.24a3.69,3.69,0,0,1,3.64,5l-58.87,219.7a7,7,0,0,1-6.3,5H1242a7,7,0,0,1-6.3-5l-66.47-248.06c-.88-3.28,1.09-6,4.37-6h111.66c3.27,0,5.56,2.9,7.55,6l15.22,23.4h30.33" transform="translate(-1053.2 -285.54)" style="fill:none;stroke:#49e1f2;stroke-linecap:round;stroke-miterlimit:10;stroke-width:8px;fill-rule:evenodd"/><path d="M1304.54,389.39l14.6,40.09a2.62,2.62,0,0,1-3.39,3.34l-13.1-5a2.62,2.62,0,0,0-3.21,1.17l-6.82,12.26a2.62,2.62,0,0,1-4.74-.38l-14.6-40.09" transform="translate(-1053.2 -285.54)" style="fill:none;stroke:#171640;stroke-linecap:round;stroke-miterlimit:10;stroke-width:8px"/><path d="M1271.73,400.77l-20.37,56.12a2.61,2.61,0,0,1-4.88.07l-5.62-14.12a2.62,2.62,0,0,0-3.67-1.34l-13.43,7.23a2.61,2.61,0,0,1-3.7-3.18l19.49-54.31" transform="translate(-1053.2 -285.54)" style="fill:none;stroke:#171640;stroke-linecap:round;stroke-miterlimit:10;stroke-width:8px"/><path d="M1270.9,400.91c-5.4,0-8.88-11.76-13.76-13.34-5.05-1.64-14.77,5.77-19,2.7s-.19-14.63-3.28-18.88-15.32-3.9-17-8.95c-1.58-4.88,8.46-11.81,8.46-17.21s-10-12.34-8.46-17.22c1.64-5.05,13.89-4.74,17-8.95s-1-15.79,3.28-18.88,13.92,4.34,19,2.7c4.88-1.58,8.36-13.34,13.76-13.34s8.89,11.76,13.76,13.34c5.06,1.64,14.77-5.76,19-2.7s.19,14.64,3.28,18.88,15.31,3.9,16.95,8.95c1.59,4.88-8.46,11.81-8.46,17.22s10,12.33,8.46,17.21c-1.64,5.05-13.89,4.74-16.95,8.95s1,15.79-3.28,18.88-13.92-4.34-19-2.7C1279.79,389.15,1276.31,400.91,1270.9,400.91Z" transform="translate(-1053.2 -285.54)" style="fill:none;stroke:#49e1f2;stroke-linecap:round;stroke-miterlimit:10;stroke-width:8px"/><path d="M1245.82,345.71,1263,363.83a2.39,2.39,0,0,0,3.24.19l27.74-40.15" transform="translate(-1053.2 -285.54)" style="fill:none;stroke:#49e1f2;stroke-linecap:round;stroke-miterlimit:10;stroke-width:8px"/><path d="M1547.41,728.17s6.34,27.1-2.17,23.7c-14.9-6,18.83-16,23.2-24.73,5.19-10.38-13.48-19.71-12.45,3.11s8.3,6.22,12.45,12.44c1.82,2.73,5.43,1.87,8.91,0" transform="translate(-1053.2 -285.54)" style="fill:none;stroke:#171640;stroke-linecap:round;stroke-miterlimit:10;stroke-width:8px"/><path d="M1662.13,895.67a2.57,2.57,0,0,1-1.83-.76l-35.15-35.14a2.6,2.6,0,0,1,1.84-4.43h13.25V820a2.59,2.59,0,0,1,2.6-2.6h38.6A2.59,2.59,0,0,1,1684,820v35.37h13.24a2.59,2.59,0,0,1,1.83,4.43L1664,894.91A2.62,2.62,0,0,1,1662.13,895.67Z" transform="translate(-1053.2 -285.54)" style="fill:none;stroke:#171640;stroke-linecap:round;stroke-miterlimit:10;stroke-width:8px"/><rect x="3" y="274.36" width="116.66" height="56.02" rx="19.84" style="fill:none;stroke:#49e1f2;stroke-linecap:round;stroke-miterlimit:10;stroke-width:6px"/><text transform="translate(25.72 314.35)" style="font-size:33.107421875px;fill:#171640;font-family:Arial;font-weight:700">.PDF</text><rect x="570.59" y="82.12" width="116.66" height="56.02" rx="19.84" style="fill:none;stroke:#49e1f2;stroke-linecap:round;stroke-miterlimit:10;stroke-width:6px"/><text transform="translate(586.93 122.11)" style="font-size:33.107421875px;fill:#171640;font-family:Arial;font-weight:700">.DOC</text><path d="M1409.25,461.52c-111.52-14.71-201.62,75.23-193.55,179.55" transform="translate(-1053.2 -285.54)" style="fill:none;stroke:#d8d8d8;stroke-linecap:round;stroke-miterlimit:10;stroke-width:8px"/><path d="M1388.81,436.83l20,22.86a2.83,2.83,0,0,1-.27,4l-21,18.31" transform="translate(-1053.2 -285.54)" style="fill:none;stroke:#d8d8d8;stroke-linecap:round;stroke-miterlimit:10;stroke-width:8px"/></svg>