<svg xmlns="http://www.w3.org/2000/svg" viewBox="0 0 169.5 210.23"><title>Ativo 1</title><g id="Camada_2" data-name="Camada 2"><g id="Layer_1" data-name="Layer 1"><path d="M84.62,115l49.12-10.06a7.3,7.3,0,0,1,8.38,8.12L142,140.88a5.93,5.93,0,0,1-6.46,5.18" style="fill:none;stroke:#fff;stroke-linecap:round;stroke-miterlimit:10;stroke-width:8px"/><path d="M84.62,115,34.34,104.9A7.31,7.31,0,0,0,26,113l2.09,27.86a5.94,5.94,0,0,0,6.46,5.18" style="fill:none;stroke:#fff;stroke-linecap:round;stroke-miterlimit:10;stroke-width:8px"/><path d="M84.09,89c-5.72-5.42-12.83-12.18-19-15.92L65,73a12.76,12.76,0,0,0-9.74-1.38C10.74,83.07,7.85,132.05,4.54,156c-3.38,24.53,9.63,25.38,21.36,24.7s37.7-4.56,37.7-4.56c8.92-1,16.12-7.76,16.12-17.33,0-8.2-5.3-15.07-12.42-16.86a14.9,14.9,0,0,0-5.28-.29l-1.65.18L34.4,146" style="fill:none;stroke:#151640;stroke-linecap:round;stroke-miterlimit:10;stroke-width:8px"/><path d="M84.62,89.45C90.28,84,97.32,77.12,103.46,73.3l.12-.07a12.74,12.74,0,0,1,9.72-1.51c44.6,11,48,59.89,51.58,83.8,3.64,24.48-9.36,25.5-21.09,25S106,176.41,106,176.41c-8.93-.89-16.2-7.56-16.31-17.13-.08-8.2,5.15-15.13,12.25-17a14.62,14.62,0,0,1,5.27-.35l1.66.16,26,3.79" style="fill:none;stroke:#151640;stroke-linecap:round;stroke-miterlimit:10;stroke-width:8px"/><line x1="41.97" y1="180.57" x2="41.97" y2="206.23" style="fill:none;stroke:#151640;stroke-linecap:round;stroke-miterlimit:10;stroke-width:8px"/><line x1="131.81" y1="180.57" x2="131.81" y2="206.23" style="fill:none;stroke:#151640;stroke-linecap:round;stroke-miterlimit:10;stroke-width:8px"/><line x1="84.62" y1="114.96" x2="84.62" y2="130.85" style="fill:none;stroke:#fff;stroke-linecap:round;stroke-miterlimit:10;stroke-width:8px"/><circle cx="84.09" cy="33.34" r="29.34" style="fill:none;stroke:#151640;stroke-linecap:round;stroke-miterlimit:10;stroke-width:8px"/></g></g></svg>