<svg xmlns="http://www.w3.org/2000/svg" viewBox="0 0 224.66 219.42"><title>Ativo 1</title><g id="Camada_2" data-name="Camada 2"><g id="Layer_1" data-name="Layer 1"><path d="M153.5,209.93c0-3.47.05-11.29.1-15.33.23-16.18.48-35.91-2.2-53.69l-2.83-13.79a64.84,64.84,0,0,0-7.64-18c-6.59-10.25-15.83-15.45-27.44-15.45a3.25,3.25,0,0,0-2.68,1.8c-7,11.7-17,17-31.76,17-12.43,0-24.31-4.48-31.76-17,0,0-.06,0-.08-.08a4.07,4.07,0,0,0-.85-.94c-.11-.09-.2-.24-.31-.32a2.62,2.62,0,0,0-1.44-.46c-12.53,0-22.3,5.39-29,16C2.74,130,3.66,165.32,4.33,191.11c.14,5.35.28,14.36.28,18.82" style="fill:none;stroke:#151640;stroke-linecap:round;stroke-miterlimit:10;stroke-width:8px"/><line x1="41.64" y1="93.64" x2="41.64" y2="215.42" style="fill:none;stroke:#151640;stroke-linecap:round;stroke-miterlimit:10;stroke-width:8px"/><line x1="116.1" y1="93.64" x2="116.1" y2="215.42" style="fill:none;stroke:#151640;stroke-linecap:round;stroke-miterlimit:10;stroke-width:8px"/><line x1="41.64" y1="152.53" x2="114.3" y2="152.53" style="fill:none;stroke:#151640;stroke-linecap:round;stroke-miterlimit:10;stroke-width:8px"/><path d="M197.45,77.24c-4-2.84-5.29-8-2.8-11.57,1.91-2.7,14.12-10.75,17.81-13.15a2.14,2.14,0,0,1,3.24,2.28c-1,4.29-4.5,18.49-6.41,21.2C206.8,79.53,201.48,80.09,197.45,77.24Z" style="fill:none;stroke:#fff;stroke-linecap:round;stroke-miterlimit:10;stroke-width:6px"/><path d="M195.21,97.59a9.34,9.34,0,0,1-3.77-7.29,9.54,9.54,0,0,1,2.41-6.83,7.3,7.3,0,0,1,5.09-2.41c3.31-.12,17.14,4.7,21.3,6.18a2.15,2.15,0,0,1,1.42,1.93,2.12,2.12,0,0,1-1.27,2c-4,1.79-17.44,7.63-20.75,7.75A7.16,7.16,0,0,1,195.21,97.59Z" style="fill:none;stroke:#fff;stroke-linecap:round;stroke-miterlimit:10;stroke-width:6px"/><path d="M179,86.19h0a7.18,7.18,0,0,1-2.75-3.73c-1-3.16,0-17.75.33-22.15a2.12,2.12,0,0,1,3.77-1.18c2.79,3.42,12,14.83,13,18a7.27,7.27,0,0,1-.56,5.61,9.51,9.51,0,0,1-5.62,4.56A9.33,9.33,0,0,1,179,86.19Z" style="fill:none;stroke:#fff;stroke-linecap:round;stroke-miterlimit:10;stroke-width:6px"/><path d="M183.63,114a9.36,9.36,0,0,1-3.77-7.29,9.54,9.54,0,0,1,2.41-6.83,7.3,7.3,0,0,1,5.09-2.41c3.31-.12,17.14,4.7,21.31,6.18a2.13,2.13,0,0,1,.14,4c-4,1.79-17.44,7.62-20.75,7.75A7.16,7.16,0,0,1,183.63,114Z" style="fill:none;stroke:#fff;stroke-linecap:round;stroke-miterlimit:10;stroke-width:6px"/><path d="M167.46,102.6h0a7.12,7.12,0,0,1-2.76-3.72c-1-3.16,0-17.75.33-22.15a2.13,2.13,0,0,1,3.77-1.18c2.8,3.42,12,14.83,13,18a7.36,7.36,0,0,1-.56,5.61,9.52,9.52,0,0,1-5.63,4.55A9.34,9.34,0,0,1,167.46,102.6Z" style="fill:none;stroke:#fff;stroke-linecap:round;stroke-miterlimit:10;stroke-width:6px"/><path d="M172.05,130.43a9.36,9.36,0,0,1-3.77-7.3,9.51,9.51,0,0,1,2.41-6.82,7.26,7.26,0,0,1,5.09-2.41c3.31-.13,17.15,4.7,21.31,6.18A2.11,2.11,0,0,1,198.5,122a2.14,2.14,0,0,1-1.26,2c-4,1.78-17.45,7.62-20.76,7.74A7.15,7.15,0,0,1,172.05,130.43Z" style="fill:none;stroke:#fff;stroke-linecap:round;stroke-miterlimit:10;stroke-width:6px"/><path d="M155.88,119h0a7.21,7.21,0,0,1-2.76-3.72c-1-3.16,0-17.75.33-22.15A2.13,2.13,0,0,1,157.22,92c2.8,3.43,12,14.84,13,18a7.37,7.37,0,0,1-.56,5.61,9.52,9.52,0,0,1-5.63,4.55A9.34,9.34,0,0,1,155.88,119Z" style="fill:none;stroke:#fff;stroke-linecap:round;stroke-miterlimit:10;stroke-width:6px"/><path d="M145.53,150.86a2.13,2.13,0,0,1-.51-3L162.61,123a2.13,2.13,0,0,1,3.48,2.45L148.5,150.35A2.13,2.13,0,0,1,145.53,150.86Z" style="fill:#fff;stroke:#fff;stroke-miterlimit:10;stroke-width:4px"/><path d="M108.21,64.68a29.34,29.34,0,0,1-58.68,0" style="fill:none;stroke:#151640;stroke-linecap:round;stroke-miterlimit:10;stroke-width:8px"/><path d="M105.8,23.35A19.35,19.35,0,0,0,86.45,4H71.28A19.34,19.34,0,0,0,51.94,23.35v14.9h0a8,8,0,0,0,8,8h0a174,174,0,0,0,37.76,0h0a8,8,0,0,0,8-8h0Z" style="fill:none;stroke:#fff;stroke-linecap:round;stroke-miterlimit:10;stroke-width:8px"/><path d="M109.71,25.14s16.07,2.45,17.8,3,12.35,2.63,8.49,14.55c0,0-4.62,18.3-44.55,24.28,0,0-9.35,1.9-25.17,0C26.35,61,21.73,42.69,21.73,42.69c-3.86-11.92,6.77-14,8.5-14.55s20.68-4.55,20.68-4.55" style="fill:none;stroke:#fff;stroke-linecap:round;stroke-miterlimit:10;stroke-width:8px"/></g></g></svg>