<svg xmlns="http://www.w3.org/2000/svg" viewBox="0 0 189.85 266.55"><title>Ativo 1</title><g id="Camada_2" data-name="Camada 2"><g id="Layer_1" data-name="Layer 1"><path d="M46.52,105.8a53.07,53.07,0,0,1,16.79-27c14.4-11.84,33-9.92,43.71,5.31,7.83,11.16,14.57,23.09,21.56,34.83a11.24,11.24,0,0,0,7.53,5.74q16.71,4.16,33.29,8.91c9.45,2.7,14.1,10.05,12.62,19.27-1.19,7.37-6.37,12.29-13.84,12.78l-47.93.27L102.16,145a4.3,4.3,0,0,0-7.41,3v14.56c0,4.12,1.35,3.38,5.47,3.37l55.79-.24c8.56,19.75,19.08,43.87,27.71,63.79,5.81,13.41-.61,25.21-14.92,27.34-7.68,1.15-13.47-2.27-17.36-8.45-7.9-12.54-15.3-25.39-23.14-38a5.71,5.71,0,0,0-1.37-1.46,8.57,8.57,0,0,0-5.73-1.75c-7.71.35-36.67,1.57-45.55,1.05-22.68-1.32-35.29-13.58-37.84-36-.12-1.1-.22-2.2-.3-3.32C37.06,162.38,43.75,115.35,46.52,105.8Z" style="fill:none;stroke:#151640;stroke-linecap:round;stroke-miterlimit:10;stroke-width:8px"/><line x1="18.45" y1="97.13" x2="42.88" y2="110.12" style="fill:none;stroke:#151640;stroke-linecap:round;stroke-miterlimit:10;stroke-width:8px"/><circle cx="111.57" cy="33.34" r="29.34" style="fill:none;stroke:#151640;stroke-linecap:round;stroke-miterlimit:10;stroke-width:8px"/><circle cx="58.93" cy="207.62" r="54.93" style="fill:none;stroke:#fff;stroke-linecap:round;stroke-miterlimit:10;stroke-width:8px"/></g></g></svg>