<svg xmlns="http://www.w3.org/2000/svg" viewBox="0 0 209.92 235.12"><title>Ativo 1</title><g id="Camada_2" data-name="Camada 2"><g id="Layer_1" data-name="Layer 1"><line x1="22.65" y1="174.66" x2="22.65" y2="216.11" style="fill:none;stroke:#151640;stroke-linecap:round;stroke-miterlimit:10;stroke-width:8px"/><circle cx="61.86" cy="33.34" r="29.34" style="fill:none;stroke:#151640;stroke-linecap:round;stroke-miterlimit:10;stroke-width:8px"/><line x1="80.05" y1="149.18" x2="80.05" y2="171.55" style="fill:none;stroke:#fff;stroke-linecap:round;stroke-miterlimit:10;stroke-width:8px"/><line x1="137.7" y1="149.18" x2="137.7" y2="179.55" style="fill:none;stroke:#fff;stroke-linecap:round;stroke-miterlimit:10;stroke-width:8px"/><rect x="89.81" y="147.47" width="12.05" height="11.39" rx="2.83" style="fill:none;stroke:#fff;stroke-linecap:round;stroke-miterlimit:10;stroke-width:6px"/><path d="M112.7,171.55V161.11a2.25,2.25,0,0,1,2.25-2.25h8.93a2.24,2.24,0,0,1,2.25,2.25v10.44" style="fill:none;stroke:#fff;stroke-linecap:round;stroke-miterlimit:10;stroke-width:6px"/><path d="M88.51,207.61a16.94,16.94,0,0,0,2-33.77c-1.61-.19-3.22-.39-4.81-.73l-.18,0c-18.37-3.34-28.46-11.4-37.1-29.35a38.21,38.21,0,0,1-3.46-9.33m65.69-40.51c-3.68-6.6-8-11.62-16.34-13.58-18-4.41-36.39-4.38-54.6-2.58C22.53,79.41,6.14,87.44,4.16,107.64a39.68,39.68,0,0,0,0,6.45c.42,6.28,1,15,2.11,20.5,3.71,17.63,10.23,34,22.5,47.69,14.86,16.58,38,23.93,59.79,25.33" style="fill:none;stroke:#151640;stroke-linecap:round;stroke-miterlimit:10;stroke-width:8px"/><path d="M116.38,94.76c-9.21,2.31-12.61,11.31-12.61,20.81v3.85" style="fill:none;stroke:#151640;stroke-linecap:round;stroke-miterlimit:10;stroke-width:8px"/><path d="M115.48,79.53a29.35,29.35,0,1,1,58.69.27c-.17,13.49-11,29.71-31.56,29C126.92,108.23,115.7,93.89,115.48,79.53Z" style="fill:none;stroke:#151640;stroke-linecap:round;stroke-miterlimit:10;stroke-width:8px"/><path d="M164.91,149.4a38.24,38.24,0,0,1-3.47,9.33c-6.77,14.07-32.12,26.5-45.83,30.74-7.72,2.39-14,8.34-14,16.7s6.19,14.46,14.29,15.73a12.7,12.7,0,0,0,1.85.14h0c.53,0,1.05,0,1.57,0,21.64-1.54,45.13-9.34,59.82-25.72,12.26-13.68,20.78-29.06,24.5-46.69,1.3-4.55,2.51-17,2.25-23.47-.92-22.75-15.61-31.61-33.73-33.4" style="fill:none;stroke:#151640;stroke-linecap:round;stroke-miterlimit:10;stroke-width:8px"/><line x1="187.19" y1="189.67" x2="187.19" y2="231.12" style="fill:none;stroke:#151640;stroke-linecap:round;stroke-miterlimit:10;stroke-width:8px"/><path d="M92.08,123.39H83.94a1.33,1.33,0,0,0-1.34,1.42c.27,4.06,0,15.66-11,19.05" style="fill:none;stroke:#fff;stroke-linecap:round;stroke-miterlimit:10;stroke-width:8px"/><path d="M146.34,143.15,112.15,118.5a4.84,4.84,0,0,0-5.7.44c-2.12,1.68-7.47,14.69-11,11.95-.82-.63-2.33-5.72-3.35-7.5" style="fill:none;stroke:#fff;stroke-linecap:round;stroke-miterlimit:10;stroke-width:8px"/></g></g></svg>