<svg xmlns="http://www.w3.org/2000/svg" viewBox="0 0 186.86 257.06"><title>Ativo 2</title><g id="Camada_2" data-name="Camada 2"><g id="Layer_1" data-name="Layer 1"><line x1="85.36" y1="132.4" x2="88.36" y2="247.19" style="fill:none;stroke:#fff;stroke-linecap:round;stroke-miterlimit:10;stroke-width:8px"/><path d="M13.83,231.18l3-95.78a12,12,0,0,1,12-12" style="fill:none;stroke:#fff;stroke-linecap:round;stroke-miterlimit:10;stroke-width:8px"/><circle cx="14.39" cy="242.67" r="10.39" style="fill:none;stroke:#fff;stroke-linecap:round;stroke-miterlimit:10;stroke-width:8px"/><line x1="15.16" y1="202.66" x2="86.86" y2="202.66" style="fill:none;stroke:#fff;stroke-linecap:round;stroke-miterlimit:10;stroke-width:8px"/><path d="M136.59,43.19A39,39,0,0,0,112,33.37c-15.24-.6-26.36,8.3-30.67,25.36C78.71,68.89,77.21,79.31,75,89.57c-.36,1.68-1.54,3.93-3,4.54-8.52,3.72-30,12-32.06,12.76a15.9,15.9,0,0,0-4.3,2.15,13.09,13.09,0,0,0-3,2.77c-.08.08-.15.17-.22.25l0,0a16,16,0,0,0,12.48,26.1,36.79,36.79,0,0,0,6.53-1.08h0c2-.29,31.7-6.23,37-7.53,11.78-2.92,23.26-7.89,25.57-21.14a.87.87,0,0,1,1.59-.34c2.85,4.5,5.72,9,8.55,13.51a70.1,70.1,0,0,1,10.49,31.28l0,.41c.76,9.43,1.54,18.62,2.23,27.82,1,13.46,2,26.93,2.95,40.39A61.38,61.38,0,0,0,142.2,234a11.68,11.68,0,0,0,2,3.74h0c5.81,7.34,14.29,9.87,23.25,6.94,7.36-2.4,12.18-9.14,12.49-18.13,1.07-30.31,2.5-60.61,2.9-90.93C183.35,97,164.38,67.71,136.59,43.19Z" style="fill:none;stroke:#151640;stroke-linecap:round;stroke-miterlimit:10;stroke-width:8px"/><circle cx="44.91" cy="33.34" r="29.34" style="fill:none;stroke:#151640;stroke-linecap:round;stroke-miterlimit:10;stroke-width:8px"/></g></g></svg>