<svg xmlns="http://www.w3.org/2000/svg" viewBox="0 0 364.17 205.09"><title>Ativo 1</title><g id="Camada_2" data-name="Camada 2"><g id="Layer_1" data-name="Layer 1"><path d="M75.64,198c-1.57-20.52-2.89-41.06-4.88-61.53-.26-2.69-3.4-6.12-6.08-7.4C42.49,118.41,21.31,93.63,11.37,78.57A48.63,48.63,0,0,1,4.3,61.42h0a14.6,14.6,0,0,1,5.87-15,14.66,14.66,0,0,1,18.2,1.45" style="fill:none;stroke:#151640;stroke-linecap:round;stroke-miterlimit:10;stroke-width:8px"/><path d="M192.57,138.06c-1.18,11.76-15.11,8.61-15.11,8.61-3.06-.62-6.09-1.43-9.26-2.3a5,5,0,0,0-6.35,4.84v51" style="fill:none;stroke:#151640;stroke-linecap:round;stroke-miterlimit:10;stroke-width:8px"/><path d="M28.37,47.87C44.77,62.71,52.24,87,112.72,96.32c7.34,1.12,43.24,1.66,53.64,3.07" style="fill:none;stroke:#151640;stroke-linecap:round;stroke-miterlimit:10;stroke-width:8px"/><circle cx="112.57" cy="52.64" r="29.34" style="fill:none;stroke:#151640;stroke-linecap:round;stroke-miterlimit:10;stroke-width:8px"/><circle cx="225.43" cy="33.34" r="29.34" style="fill:none;stroke:#fff;stroke-linecap:round;stroke-miterlimit:10;stroke-width:8px"/><path d="M192.06,200.36c0-2.74,0-5.55,0-8.36.1-12.07.26-24.14.3-36.21l.2-17.73" style="fill:none;stroke:#fff;stroke-linecap:round;stroke-miterlimit:10;stroke-width:8px"/><path d="M166.36,99.39c8.72-11.9,34.69-22.65,63.7-22.65,17.78,0,58.84,16.33,94.43-16.51,9.2-9,19-19.82,30.22-11.59,7.93,7,6.67,16.16-.28,25.86-18.29,25.53-36.75,32.82-65.64,44.86-4.77,2-6.05,4.69-6.44,9.79-1.85,23.81-4.38,47.57-6.73,71.94" style="fill:none;stroke:#fff;stroke-linecap:round;stroke-miterlimit:10;stroke-width:8px"/></g></g></svg>