<svg xmlns="http://www.w3.org/2000/svg" viewBox="0 0 190.89 264.9"><title>Ativo 1</title><g id="Camada_2" data-name="Camada 2"><g id="Layer_1" data-name="Layer 1"><line x1="27.58" y1="28.64" x2="27.58" y2="4" style="fill:none;stroke:#fff;stroke-linecap:round;stroke-miterlimit:10;stroke-width:8px"/><line x1="27.58" y1="206.74" x2="27.58" y2="84.28" style="fill:none;stroke:#fff;stroke-linecap:round;stroke-miterlimit:10;stroke-width:8px"/><line x1="27.58" y1="260.9" x2="27.58" y2="251.99" style="fill:none;stroke:#fff;stroke-linecap:round;stroke-miterlimit:10;stroke-width:8px"/><line x1="76.74" y1="66.2" x2="76.74" y2="4" style="fill:none;stroke:#fff;stroke-linecap:round;stroke-miterlimit:10;stroke-width:8px"/><line x1="76.74" y1="260.9" x2="76.74" y2="227.08" style="fill:none;stroke:#fff;stroke-linecap:round;stroke-miterlimit:10;stroke-width:8px"/><line x1="125.91" y1="66.2" x2="125.91" y2="4" style="fill:none;stroke:#fff;stroke-linecap:round;stroke-miterlimit:10;stroke-width:8px"/><line x1="125.91" y1="260.9" x2="125.91" y2="253.19" style="fill:none;stroke:#fff;stroke-linecap:round;stroke-miterlimit:10;stroke-width:8px"/><line x1="175.08" y1="158.63" x2="175.08" y2="4" style="fill:none;stroke:#fff;stroke-linecap:round;stroke-miterlimit:10;stroke-width:8px"/><path d="M30.52,250.26a17.45,17.45,0,0,1-9.18,2.49A17.65,17.65,0,0,1,4,235.09,16.85,16.85,0,0,1,10.14,222l1-.87c15.5-12.07,31.09-24.43,46.64-36.45l0,0a5.93,5.93,0,0,0,1.68-7.34c-5.26-10.6-22-50.34-22-50.34a16.12,16.12,0,0,1,28.63-14.81S76.46,136.07,77.63,139a3.83,3.83,0,0,0,5.31,2c9.91-5.16,19.34-10.11,28.84-14.91a38.65,38.65,0,0,1,28.67-2.72,44.45,44.45,0,0,1,25.94,19.13c5.56,8.72,9.83,18.37,13.77,28A87.4,87.4,0,0,1,185,222.26c-3.08,14.72-9.58,27.1-25,32.23-11.76,3.91-23.07,2.26-33.64-3.92-10.21-6-20.39-12-30.26-18.5l-.47-.25c-5.07-2.75-9.88-5.92-14.78-9-2.69-1.67-5.25-1.08-8.43,1.1-10.64,7.3-30.7,19.18-41.64,26.17Z" style="fill:none;stroke:#151640;stroke-linecap:round;stroke-miterlimit:10;stroke-width:8px"/><path d="M64.34,180.4s-1.71,3.45-1.66,3.47c3.53,1,45.55,11.68,59.07,14.57a2.81,2.81,0,0,0,3-4.06c-2.26-5-5.06-13.39-8-20.61a7.6,7.6,0,0,0-8.37-4.39C93.36,172.74,72.49,178.72,64.34,180.4Z" style="fill:none;stroke:#151640;stroke-linecap:round;stroke-miterlimit:10;stroke-width:8px"/><circle cx="27.04" cy="61.77" r="2.2" style="fill:none;stroke:#151640;stroke-linecap:round;stroke-miterlimit:10;stroke-width:8px"/><rect x="6.18" y="28.64" width="42.79" height="54.31" rx="12" style="fill:none;stroke:#151640;stroke-linecap:round;stroke-miterlimit:10;stroke-width:8px"/><circle cx="101.36" cy="83.02" r="29.34" style="fill:none;stroke:#151640;stroke-linecap:round;stroke-miterlimit:10;stroke-width:8px"/></g></g></svg>