<svg xmlns="http://www.w3.org/2000/svg" viewBox="0 0 283.61 225.2"><title>Ativo 1</title><g id="Camada_2" data-name="Camada 2"><g id="Layer_1" data-name="Layer 1"><line x1="148.58" y1="165.27" x2="182.79" y2="170.19" style="fill:none;stroke:#fff;stroke-linecap:round;stroke-miterlimit:10;stroke-width:8px"/><line x1="212.42" y1="198.64" x2="174.98" y2="184.08" style="fill:none;stroke:#fff;stroke-linecap:round;stroke-miterlimit:10;stroke-width:8px"/><line x1="191.2" y1="188.29" x2="211.9" y2="151.66" style="fill:none;stroke:#fff;stroke-linecap:round;stroke-miterlimit:10;stroke-width:8px"/><path d="M199.94,142.74c9.35,4.06,18.49,8.51,27.6,12.43,7,3,5.88,8.1,4.08,12.34-5.17,12.18-19.93,41.28-22.72,45.32-3.71,5.37-8.22,8.29-14.76,8.34-18.66.15-57.95-.31-57.95-.31a16.28,16.28,0,0,1-16.28-16.29c0-9,7.44-14.65,16.28-16.28,0,0,25.88-3.95,37.43-5.41,4.21-.51,29.9-51.88,38.66-60.38,13.12-12.74,35.14-10.6,48,4.19,8.38,9.67,10.83,21.5,12.51,33.65q3.4,24.75,6.87,49.49" style="fill:none;stroke:#fff;stroke-linecap:round;stroke-miterlimit:10;stroke-width:8px"/><path d="M78.06,203.36c1-9.91,2.15-19.31,2.63-28.75.24-4.76,2.65-5.4,6.36-5.21s7.27.35,10.91.48c9.93.37,19.87,1.09,29.8.94,7.25-.1,15.22,1.39,20.82-5.55a16.55,16.55,0,0,0,3.9-10.78c0-10.55-7.32-15.25-16-16.27,0,0-16.2-1.89-24.29-3-16.38-2.17-16.38-2.19-20.86-18.21-.22-.8-.27-1.65-.52-2.44-3.3-10.27-6-23.62-14.71-31.34C60.31,69.21,33.93,71.18,20.72,87.73c-7.82,9.8-9.43,21.53-10.5,33.31-2.16,23.87-3.87,47.78-5.73,71.68-.26,3.25-.32,6.52-.49,10.11" style="fill:none;stroke:#151640;stroke-linecap:round;stroke-miterlimit:10;stroke-width:8px"/><circle cx="70.78" cy="33.34" r="29.34" style="fill:none;stroke:#151640;stroke-linecap:round;stroke-miterlimit:10;stroke-width:8px"/><circle cx="185.94" cy="88.56" r="29.34" style="fill:none;stroke:#fff;stroke-linecap:round;stroke-miterlimit:10;stroke-width:8px"/></g></g></svg>