<svg xmlns="http://www.w3.org/2000/svg" viewBox="0 0 253.55 249.59"><title>Ativo 2</title><g id="Camada_2" data-name="Camada 2"><g id="Layer_1" data-name="Layer 1"><path d="M61.79,113.48c-7.34,5.33-14.45,11-22.1,15.82-3.83,2.41-8-.88-8.42-6-.48-6.14-.79-12.3-.89-18.46-.06-3-1-4.43-4.12-5-5.55-1-11.06-2.41-16.52-3.9C3.35,94.16,2.1,88.92,7,84.37c4.62-4.3,9.38-8.45,14.6-13.14-4.15-7.46-8.06-14.6-12.07-21.69-1.69-3-3.31-6-.84-9.24s5.79-2.49,9.14-1.65c7.9,2,15.83,3.84,24.23,5.86,2.51-5.6,4.9-11,7.37-16.42,3.23-7,8-7.55,12.67-1.34,2.18,2.89,4.26,5.85,6.56,9" style="fill:none;stroke:#fff;stroke-linecap:round;stroke-miterlimit:10;stroke-width:8px"/><path d="M228.29,127.39a15,15,0,0,1-16.91,24.77l-.77-.43c-9.08-5-17.23-10.67-26.34-15.74-7.81-4.36-18.68-25.24-22.24-32.7a1.46,1.46,0,0,0-2.23-.52c-4,3.14-7.49,6-11.12,8.77-4.19,3.18-8.47,6.22-13.38,9.8,5.61,8,11,15.73,16.53,23.46,4.45,6.26,9.56,12.16,13.24,18.84,2,3.59,3,8.93,2,12.75L148.72,234a17,17,0,0,1-32.78-2.41,13.53,13.53,0,0,1,.11-4.83c1.35-7.1,6.14-32.26,8.06-41.76l0-.1a4.55,4.55,0,0,0-7.6-4.2c-6.77,6.45-13.46,12.82-20.15,19.17C93,203.1,80.41,215,79.22,216.24a16.92,16.92,0,0,1-14.71,4.93,16.72,16.72,0,0,1-14.27-14.95,16.91,16.91,0,0,1,3.83-12.65M68.63,55.27c9.69-8.35,23.07-19.53,32.63-28,7.66-6.79,15.74-8.45,24.81-3.76,16.69,8.62,33.54,17,49.77,26.44,4.23,2.46,7.5,8,9.36,12.83,4.56,11.82,7.87,24.11,12.05,36.09a18,18,0,0,0,5,7.49c8.25,7.33,17.09,13.45,25.48,20.59l.53.45M54.07,193.57l2-2.52c6.66-8.2,13.5-16.26,20.21-24.42,4.53-5.5,9-11,13.43-16.44a2.84,2.84,0,0,0,.12-3.42c-3.06-4.34-6-8.45-8.82-12.7-10-15.18-7.84-31.64,5.75-43.53,9.47-8.28,19.17-16.3,28.77-24.44,1.39-1.19-31.27,13.32-31.27,13.32-2.65,1.25-4.71,2.07-7.43,2.07A14.25,14.25,0,0,1,62.76,70.23a14.44,14.44,0,0,1,5.87-15" style="fill:none;stroke:#151640;stroke-linecap:round;stroke-miterlimit:10;stroke-width:8px"/><circle cx="220.22" cy="33.34" r="29.34" style="fill:none;stroke:#151640;stroke-linecap:round;stroke-miterlimit:10;stroke-width:8px"/></g></g></svg>