<svg xmlns="http://www.w3.org/2000/svg" viewBox="0 0 254.84 185.38"><title>Ativo 1</title><g id="Camada_2" data-name="Camada 2"><g id="Layer_1" data-name="Layer 1"><path d="M109.24,180.14a18.92,18.92,0,0,0-18.92-18.93H4V4H90.32a18.92,18.92,0,0,1,18.92,18.92V180.14Z" style="fill:none;stroke:#171640;stroke-linecap:round;stroke-miterlimit:10;stroke-width:8px"/><path d="M211.15,67.29V4h-83a18.92,18.92,0,0,0-18.92,18.92V180.14a18.92,18.92,0,0,1,18.92-18.93h15.92" style="fill:none;stroke:#171640;stroke-linecap:round;stroke-miterlimit:10;stroke-width:8px"/><line x1="86.46" y1="33.9" x2="26.52" y2="33.9" style="fill:none;stroke:#171640;stroke-linecap:round;stroke-miterlimit:10;stroke-width:8px"/><line x1="86.46" y1="57.33" x2="26.52" y2="57.33" style="fill:none;stroke:#fff;stroke-linecap:round;stroke-miterlimit:10;stroke-width:8px"/><line x1="86.46" y1="80.77" x2="26.52" y2="80.77" style="fill:none;stroke:#171640;stroke-linecap:round;stroke-miterlimit:10;stroke-width:8px"/><line x1="188.29" y1="33.9" x2="131.68" y2="33.9" style="fill:none;stroke:#171640;stroke-linecap:round;stroke-miterlimit:10;stroke-width:8px"/><line x1="188.29" y1="57.33" x2="131.68" y2="57.33" style="fill:none;stroke:#171640;stroke-linecap:round;stroke-miterlimit:10;stroke-width:8px"/><line x1="158.16" y1="80.77" x2="131.68" y2="80.77" style="fill:none;stroke:#171640;stroke-linecap:round;stroke-miterlimit:10;stroke-width:8px"/><line x1="86.46" y1="104.2" x2="26.52" y2="104.2" style="fill:none;stroke:#fff;stroke-linecap:round;stroke-miterlimit:10;stroke-width:8px"/><path d="M189.41,147.16c2.07,4.18,7.17,7.14,13.13,7.14,7.79,0,14.11-5.06,14.11-11.29,0-8.47-6.59-10.35-14.11-11.29-9.75-1.22-14.12-5.06-14.12-11.29s6.32-11.29,14.12-11.29c5.8,0,10.78,2.8,13,6.8" style="fill:none;stroke:#fff;stroke-linecap:round;stroke-miterlimit:10;stroke-width:8px"/><line x1="202.54" y1="102.55" x2="202.54" y2="160.88" style="fill:none;stroke:#fff;stroke-linecap:round;stroke-miterlimit:10;stroke-width:8px"/><path d="M202.54,83.52a48.3,48.3,0,0,0-39.9,75.54l-7.1,19.66,19.62-7.09a48.31,48.31,0,1,0,27.38-88.11Z" style="fill:none;stroke:#171640;stroke-linecap:round;stroke-miterlimit:10;stroke-width:8px"/></g></g></svg>