<svg xmlns="http://www.w3.org/2000/svg" viewBox="0 0 191.67 225.28"><title>Ativo 1</title><g id="Camada_2" data-name="Camada 2"><g id="Layer_1" data-name="Layer 1"><path d="M169.48,42.66a26.6,26.6,0,0,1,18.19,25.21V194.73a26.57,26.57,0,0,1-26.54,26.55H90.56A26.58,26.58,0,0,1,64,194.73V67.87A26.59,26.59,0,0,1,82.2,42.67" style="fill:none;stroke:#171640;stroke-linecap:round;stroke-miterlimit:10;stroke-width:8px"/><rect x="82.2" y="92.24" width="87.29" height="110.86" rx="8.36" style="fill:none;stroke:#171640;stroke-linecap:round;stroke-miterlimit:10;stroke-width:8px"/><line x1="169.49" y1="121.37" x2="82.2" y2="121.37" style="fill:none;stroke:#171640;stroke-linecap:round;stroke-miterlimit:10;stroke-width:8px"/><line x1="97.84" y1="142.22" x2="104.32" y2="142.22" style="fill:none;stroke:#171640;stroke-linecap:round;stroke-miterlimit:10;stroke-width:8px"/><line x1="122.52" y1="142.22" x2="128.99" y2="142.22" style="fill:none;stroke:#171640;stroke-linecap:round;stroke-miterlimit:10;stroke-width:8px"/><line x1="147.19" y1="142.22" x2="153.66" y2="142.22" style="fill:none;stroke:#171640;stroke-linecap:round;stroke-miterlimit:10;stroke-width:8px"/><line x1="97.84" y1="162.17" x2="104.32" y2="162.17" style="fill:none;stroke:#171640;stroke-linecap:round;stroke-miterlimit:10;stroke-width:8px"/><line x1="122.52" y1="162.17" x2="128.99" y2="162.17" style="fill:none;stroke:#171640;stroke-linecap:round;stroke-miterlimit:10;stroke-width:8px"/><line x1="147.19" y1="162.17" x2="153.66" y2="162.17" style="fill:none;stroke:#171640;stroke-linecap:round;stroke-miterlimit:10;stroke-width:8px"/><line x1="97.84" y1="182.11" x2="104.32" y2="182.11" style="fill:none;stroke:#171640;stroke-linecap:round;stroke-miterlimit:10;stroke-width:8px"/><line x1="122.52" y1="182.11" x2="128.99" y2="182.11" style="fill:none;stroke:#171640;stroke-linecap:round;stroke-miterlimit:10;stroke-width:8px"/><line x1="147.19" y1="182.11" x2="153.66" y2="182.11" style="fill:none;stroke:#171640;stroke-linecap:round;stroke-miterlimit:10;stroke-width:8px"/><path d="M93.56,69.47V28.78A24.77,24.77,0,0,0,68.79,4h0A24.77,24.77,0,0,0,44,28.78v68a20,20,0,0,1-20,20h0a20,20,0,0,1-20-20v-20H44" style="fill:none;stroke:#fff;stroke-linecap:round;stroke-miterlimit:10;stroke-width:8px"/><path d="M157.17,69.47V28.78A24.78,24.78,0,0,0,132.39,4H68.79" style="fill:none;stroke:#fff;stroke-linecap:round;stroke-miterlimit:10;stroke-width:8px"/><line x1="24.01" y1="116.75" x2="52.33" y2="116.75" style="fill:none;stroke:#fff;stroke-linecap:round;stroke-miterlimit:10;stroke-width:8px"/><line x1="109.48" y1="29.93" x2="141" y2="29.93" style="fill:none;stroke:#fff;stroke-linecap:round;stroke-miterlimit:10;stroke-width:8px"/><line x1="109.48" y1="47.12" x2="123.81" y2="47.12" style="fill:none;stroke:#fff;stroke-linecap:round;stroke-miterlimit:10;stroke-width:8px"/><line x1="85.84" y1="69.75" x2="165.85" y2="69.75" style="fill:none;stroke:#171640;stroke-linecap:round;stroke-miterlimit:10;stroke-width:8px"/></g></g></svg>