<svg xmlns="http://www.w3.org/2000/svg" viewBox="0 0 229.49 204.94"><title>Ativo 1</title><g id="Camada_2" data-name="Camada 2"><g id="Layer_1" data-name="Layer 1"><path d="M144.78,135c-15.23-18.15-8.68-40.71,7.54-52.74,3.67-2.71,7.52-2.68,10.8.52,13.83,13.48,19.83,33,8.06,50.77-.39.59-.91,1.1-2,2.33" style="fill:none;stroke:#fff;stroke-linecap:round;stroke-miterlimit:10;stroke-width:8px"/><path d="M105.3,148.23c-7.57,0-15.13.32-22.69.38-9.39.08-18.78-.19-28.15.08-9.06.26-14.85,6.81-13.82,15.06.91,7.37,6.35,12,14.78,12.09,14.08.18,28.15.16,42.23.2,7.7,0,15.41,0,23.7,0M102.12,118.9c-20.39.07-52.19-.11-72.57.1-11.79.12-18.71,10.59-14,20.9,2.75,6,7.8,8.71,14.35,8.7,25.07,0,6.8-.06,31.87,0M91,89.25c-23.46.12-46.92.08-70.38.13C10.25,89.4,4,95.18,4,104.2s6.48,14.68,17,14.68c23.46,0,46.61,0,70.07,0m100.69,74.19c4.06-3.08,7.72-5.55,11.59-8.85,15.92-13.65,21.42-32.18,22.11-52,.42-12.29-1.48-24.8-3.5-37C220,83.77,213.78,73.92,205.52,66c-10.1-9.7-22.22-16.72-35.31-21.65-21.76-8.21-41.05-20.05-57.66-36.4-6.24-6.14-10.42-5-14.61,2.85C92.52,21,94.49,33.57,103.56,42.57c3.79,3.77,8.65,6.43,12.78,9.88,1.16,1,2.4,3.4,1.94,4.36a5.86,5.86,0,0,1-4.39,2.76c-24.35.22-48.69.21-73,.26-11.47,0-18.2,5.41-18.31,14.65S29,89.29,40.45,89.31c17,0,33.92-.07,50.88,0" style="fill:none;stroke:#171640;stroke-linecap:round;stroke-miterlimit:10;stroke-width:8px"/><path d="M122.64,200.94c0-2.66-.08-24.89-.08-35.76-.16-5.53,2-9.21,7.1-10.76a90.74,90.74,0,0,1,54.31,0c5.09,1.56,7,5.16,7,10.73,0,10.48.21,19,.21,28.35" style="fill:none;stroke:#fff;stroke-linecap:round;stroke-miterlimit:10;stroke-width:8px"/></g></g></svg>