<svg xmlns="http://www.w3.org/2000/svg" viewBox="0 0 187.84 222.32"><title>Ativo 1</title><g id="Camada_2" data-name="Camada 2"><g id="Layer_1" data-name="Layer 1"><path d="M40.4,111.36c2.07,4.18,7.16,7.14,13.12,7.14,7.8,0,14.12-5.06,14.12-11.29,0-8.47-6.59-10.35-14.12-11.29-9.74-1.22-14.11-5.06-14.11-11.29s6.32-11.29,14.11-11.29c5.8,0,10.79,2.8,13,6.8" style="fill:none;stroke:#fff;stroke-linecap:round;stroke-miterlimit:10;stroke-width:8px"/><line x1="53.52" y1="66.75" x2="53.52" y2="125.08" style="fill:none;stroke:#fff;stroke-linecap:round;stroke-miterlimit:10;stroke-width:8px"/><path d="M108.3,200.4v-22h-26a.56.56,0,0,0-.57.56V200.4" style="fill:none;stroke:#fff;stroke-linecap:round;stroke-miterlimit:10;stroke-width:8px"/><path d="M134.83,200.4V151.25h-26a.57.57,0,0,0-.56.57V200.4" style="fill:none;stroke:#fff;stroke-linecap:round;stroke-miterlimit:10;stroke-width:8px"/><path d="M161.37,200.4V112.88a.56.56,0,0,0-.57-.57H135.4a.57.57,0,0,0-.57.57V200.4" style="fill:none;stroke:#fff;stroke-linecap:round;stroke-miterlimit:10;stroke-width:8px"/><line x1="161.37" y1="62.57" x2="126.82" y2="62.57" style="fill:none;stroke:#171640;stroke-linecap:round;stroke-miterlimit:10;stroke-width:8px"/><line x1="161.37" y1="81.64" x2="126.82" y2="81.64" style="fill:none;stroke:#171640;stroke-linecap:round;stroke-miterlimit:10;stroke-width:8px"/><path d="M32.75,149.32v62.2a6.81,6.81,0,0,0,6.8,6.8H177a6.8,6.8,0,0,0,6.8-6.8V38.39a6.79,6.79,0,0,0-6.8-6.8H84.42" style="fill:none;stroke:#171640;stroke-linecap:round;stroke-miterlimit:10;stroke-width:8px"/><path d="M71.13,50.34a19.85,19.85,0,0,1-1.41-7.74c.62-12.71,7.4-21.7,12.42-33,.55-1.25,1.69-2.7.54-3.63-1.91-1.56-6.28-.08-8.22.65-3,1.15-6.2,2.66-9.4,2.1C62.12,8.19,59.76,6,57,5A11.09,11.09,0,0,0,49,5.15c-1.7.68-3.23,1.8-5,2.21C38.29,8.66,33.37,3.81,27.69,4c-1.64,0-5.55.27-6.47,1.93-.41.74.69,2.53,1,3.17C28.92,22.69,42.77,39.34,32.68,54.6a33.05,33.05,0,0,1-7.8,7.9C14.59,70.3,4,84,4,97.64,4,125,26.17,136.33,53.52,136.33S103,125,103,97.64c0-22.68-24.12-27.59-31.51-46.24C71.39,51.05,71.26,50.69,71.13,50.34Z" style="fill:none;stroke:#171640;stroke-linecap:round;stroke-miterlimit:10;stroke-width:8px"/><line x1="35.19" y1="35.55" x2="70.73" y2="35.55" style="fill:none;stroke:#171640;stroke-linecap:round;stroke-miterlimit:10;stroke-width:8px"/><line x1="33.43" y1="54.02" x2="72.72" y2="54.02" style="fill:none;stroke:#171640;stroke-linecap:round;stroke-miterlimit:10;stroke-width:8px"/></g></g></svg>