<svg xmlns="http://www.w3.org/2000/svg" viewBox="0 0 230.96 234.6"><title>Ativo 1</title><g id="Camada_2" data-name="Camada 2"><g id="Layer_1" data-name="Layer 1"><path d="M111.13,200.42H18.48c-8,0-14.48-6.88-14.48-15.36V19.37C4,10.88,10.48,4,18.48,4H140c8,0,14.48,6.88,14.48,15.37V92.21l0,15.73" style="fill:none;stroke:#171640;stroke-linecap:round;stroke-miterlimit:10;stroke-width:8px"/><line x1="38.82" y1="85.7" x2="38.82" y2="103.78" style="fill:none;stroke:#171640;stroke-linecap:round;stroke-miterlimit:10;stroke-width:8px"/><line x1="53.19" y1="75.24" x2="53.19" y2="103.78" style="fill:none;stroke:#171640;stroke-linecap:round;stroke-miterlimit:10;stroke-width:8px"/><line x1="67.56" y1="64.77" x2="67.56" y2="103.78" style="fill:none;stroke:#171640;stroke-linecap:round;stroke-miterlimit:10;stroke-width:8px"/><line x1="81.92" y1="80.47" x2="81.92" y2="103.78" style="fill:none;stroke:#171640;stroke-linecap:round;stroke-miterlimit:10;stroke-width:8px"/><line x1="96.29" y1="71.75" x2="96.29" y2="103.78" style="fill:none;stroke:#171640;stroke-linecap:round;stroke-miterlimit:10;stroke-width:8px"/><line x1="110.65" y1="61.28" x2="110.65" y2="103.78" style="fill:none;stroke:#171640;stroke-linecap:round;stroke-miterlimit:10;stroke-width:8px"/><line x1="125.02" y1="50.82" x2="125.02" y2="103.78" style="fill:none;stroke:#171640;stroke-linecap:round;stroke-miterlimit:10;stroke-width:8px"/><path d="M35.59,67.09l30.05-22a2.51,2.51,0,0,1,3.42.44L80.33,59.4a2.67,2.67,0,0,0,3.63.47L126.9,28.53" style="fill:none;stroke:#fff;stroke-linecap:round;stroke-miterlimit:10;stroke-width:8px"/><line x1="39.21" y1="136.15" x2="110.54" y2="136.15" style="fill:none;stroke:#171640;stroke-linecap:round;stroke-miterlimit:10;stroke-width:8px"/><line x1="39.21" y1="153.28" x2="110.54" y2="153.28" style="fill:none;stroke:#171640;stroke-linecap:round;stroke-miterlimit:10;stroke-width:8px"/><line x1="39.21" y1="170.4" x2="67.74" y2="170.4" style="fill:none;stroke:#171640;stroke-linecap:round;stroke-miterlimit:10;stroke-width:8px"/><path d="M153.69,183.64c2.07,4.18,7.17,7.13,13.13,7.13,7.79,0,14.11-5.05,14.11-11.29,0-8.47-6.58-10.35-14.11-11.29-9.75-1.22-14.11-5.05-14.11-11.29s6.32-11.29,14.11-11.29c5.8,0,10.78,2.8,13,6.8" style="fill:none;stroke:#fff;stroke-linecap:round;stroke-miterlimit:10;stroke-width:8px"/><line x1="166.82" y1="139.03" x2="166.82" y2="197.36" style="fill:none;stroke:#fff;stroke-linecap:round;stroke-miterlimit:10;stroke-width:8px"/><path d="M223.59,211,203.8,191.2A44.06,44.06,0,1,0,187.16,207l20.2,20.19A11.48,11.48,0,1,0,223.59,211Z" style="fill:none;stroke:#171640;stroke-linecap:round;stroke-miterlimit:10;stroke-width:8px"/></g></g></svg>