<svg xmlns="http://www.w3.org/2000/svg" viewBox="0 0 158.64 221.57"><title>Ativo 1</title><g id="Camada_2" data-name="Camada 2"><g id="Layer_1" data-name="Layer 1"><line x1="36.56" y1="217.57" x2="36.56" y2="201.49" style="fill:none;stroke:#151640;stroke-linecap:round;stroke-miterlimit:10;stroke-width:8px"/><line x1="119.89" y1="217.57" x2="119.89" y2="201.96" style="fill:none;stroke:#151640;stroke-linecap:round;stroke-miterlimit:10;stroke-width:8px"/><path d="M82.2,183.4s20.9-7.41,23.88-23.09a5.3,5.3,0,0,1,5.17-4.39h.6c10.8,0,20-8.53,20.08-19.33A19.58,19.58,0,0,0,111,116.81c-10.37.68-18.26,9.64-18.26,20h0a5.31,5.31,0,0,1-3.67,5.05L24.24,163.05" style="fill:none;stroke:#fff;stroke-linecap:round;stroke-miterlimit:10;stroke-width:8px"/><path d="M82.2,192s6.31,10.5,24.11,10.5c6.23,0,31.62-6.78,31.62-6.78s21.62-4.94,15.68-29.73-13.69-57-13.69-57-2.12-17.76-22-27.51a45.16,45.16,0,0,0-20-4.54H60.78a45.51,45.51,0,0,0-21.25,5.17C20.76,92,18.72,109,18.72,109S11,141.18,5,166s15.68,29.73,15.68,29.73l41,8.36a17.67,17.67,0,0,0,4.29.39,14.31,14.31,0,0,0,2.76-.37,17,17,0,0,0,13.06-16.49c0-8.7-6-15.08-15-16.84-1.68-.33-42.58-7.69-42.58-7.69" style="fill:none;stroke:#151640;stroke-linecap:round;stroke-miterlimit:10;stroke-width:8px"/><circle cx="79.32" cy="33.34" r="29.34" style="fill:none;stroke:#151640;stroke-linecap:round;stroke-miterlimit:10;stroke-width:8px"/></g></g></svg>