<svg xmlns="http://www.w3.org/2000/svg" viewBox="0 0 240.47 216.9"><title>Ativo 1</title><g id="Camada_2" data-name="Camada 2"><g id="Layer_1" data-name="Layer 1"><path d="M35.65,138.15c2.07,4.18,7.17,7.13,13.13,7.13,7.79,0,14.11-5.05,14.11-11.29,0-8.46-6.59-10.34-14.11-11.29-9.75-1.21-14.12-5-14.12-11.29S41,100.12,48.78,100.12c5.8,0,10.78,2.8,12.95,6.8" style="fill:none;stroke:#fff;stroke-linecap:round;stroke-miterlimit:10;stroke-width:8px"/><line x1="48.78" y1="93.54" x2="48.78" y2="151.87" style="fill:none;stroke:#fff;stroke-linecap:round;stroke-miterlimit:10;stroke-width:8px"/><circle cx="120.23" cy="29.5" r="14.93" transform="translate(70.04 142.67) rotate(-79.87)" style="fill:none;stroke:#171640;stroke-linecap:round;stroke-miterlimit:10;stroke-width:8px"/><line x1="120.23" y1="45.64" x2="120.23" y2="156.18" style="fill:none;stroke:#171640;stroke-linecap:round;stroke-miterlimit:10;stroke-width:8px"/><path d="M138.46,191.89V178.71c-17-7.19-18.23-22.53-18.23-22.53S119,171.52,102,178.71v13.18" style="fill:none;stroke:#171640;stroke-linecap:round;stroke-miterlimit:10;stroke-width:8px"/><path d="M85.19,212.9V201.61a9.72,9.72,0,0,1,9.72-9.72h50.64a9.72,9.72,0,0,1,9.72,9.72V212.9" style="fill:none;stroke:#171640;stroke-linecap:round;stroke-miterlimit:10;stroke-width:8px"/><path d="M138.07,29.5h29a8.13,8.13,0,0,1,16.26,0,8.13,8.13,0,0,0,16.26,0" style="fill:none;stroke:#171640;stroke-linecap:round;stroke-miterlimit:10;stroke-width:8px"/><path d="M102.4,29.5h-29a8.13,8.13,0,1,0-16.26,0,8.13,8.13,0,0,1-16.26,0" style="fill:none;stroke:#171640;stroke-linecap:round;stroke-miterlimit:10;stroke-width:8px"/><line x1="120.23" y1="12.7" x2="120.23" y2="4" style="fill:none;stroke:#171640;stroke-linecap:round;stroke-miterlimit:10;stroke-width:8px"/><line x1="192.35" y1="38.44" x2="208.8" y2="81.01" style="fill:none;stroke:#171640;stroke-linecap:round;stroke-miterlimit:10;stroke-width:8px"/><line x1="184.16" y1="56.31" x2="174.59" y2="81.01" style="fill:none;stroke:#171640;stroke-linecap:round;stroke-miterlimit:10;stroke-width:8px"/><circle cx="191.69" cy="122.7" r="44.78" style="fill:none;stroke:#171640;stroke-linecap:round;stroke-miterlimit:10;stroke-width:8px"/><line x1="207.07" y1="107.32" x2="176.31" y2="138.08" style="fill:none;stroke:#fff;stroke-linecap:round;stroke-miterlimit:10;stroke-width:8px"/><circle cx="175.96" cy="108.46" r="7.6" style="fill:none;stroke:#fff;stroke-linecap:round;stroke-miterlimit:10;stroke-width:8px"/><circle cx="207.42" cy="136.95" r="7.6" style="fill:none;stroke:#fff;stroke-linecap:round;stroke-miterlimit:10;stroke-width:8px"/><line x1="48.11" y1="38.44" x2="31.67" y2="81.01" style="fill:none;stroke:#171640;stroke-linecap:round;stroke-miterlimit:10;stroke-width:8px"/><line x1="56.31" y1="56.31" x2="65.88" y2="81.01" style="fill:none;stroke:#171640;stroke-linecap:round;stroke-miterlimit:10;stroke-width:8px"/><circle cx="48.78" cy="122.7" r="44.78" style="fill:none;stroke:#171640;stroke-linecap:round;stroke-miterlimit:10;stroke-width:8px"/></g></g></svg>