<svg id="Layer_1" data-name="Layer 1" xmlns="http://www.w3.org/2000/svg" viewBox="0 0 261.67 251.14"><title>antecipado</title><polyline points="211.46 43.28 257.67 59.96 223.61 94.03 257.67 128.1 164.9 161.59 130.84 127.52 96.77 161.59 4 128.1 38.06 94.03" style="fill:none;stroke:#171640;stroke-linecap:round;stroke-linejoin:round;stroke-width:8px"/><polyline points="38.06 94.03 4 59.96 50.21 43.28" style="fill:none;stroke:#171640;stroke-linecap:round;stroke-linejoin:round;stroke-width:8px"/><polyline points="223.61 94.03 130.84 127.52 38.06 94.03" style="fill:none;stroke:#171640;stroke-linecap:round;stroke-linejoin:round;stroke-width:8px"/><polyline points="38.06 141.73 38.06 213.65 130.84 247.14 223.61 213.65 223.61 141.73" style="fill:none;stroke:#171640;stroke-linecap:round;stroke-linejoin:round;stroke-width:8px"/><line x1="130.84" y1="246.6" x2="130.84" y2="147.23" style="fill:none;stroke:#171640;stroke-linecap:round;stroke-linejoin:round;stroke-width:8px"/><path d="M3384.36,1897.77,3325,1919.19,3266.19,1898" transform="translate(-3194.41 -1871.03)" style="fill:none;stroke:#49e1f2;stroke-linecap:round;stroke-miterlimit:10;stroke-width:8px"/><polyline points="191.43 85.77 191.43 26.21 130.61 4.25 69.79 26.21 69.79 85.77" style="fill:none;stroke:#49e1f2;stroke-linecap:round;stroke-miterlimit:10;stroke-width:8px"/></svg>