<svg id="Layer_1" data-name="Layer 1" xmlns="http://www.w3.org/2000/svg" viewBox="0 0 214.62 279.57"><title>3</title><polyline points="209.18 114.23 107.31 161.74 5.42 114.22" style="fill:none;stroke:#171640;stroke-linecap:round;stroke-linejoin:round;stroke-width:8px"/><path d="M3550,1978.52l-11.53,5.38v113.84l103.31,48.17,103.31-48.17V1983.9l-19.82-9.24" transform="translate(-3534.49 -1870.34)" style="fill:none;stroke:#171640;stroke-linecap:round;stroke-linejoin:round;stroke-width:8px"/><line x1="107.31" y1="162.26" x2="107.31" y2="274.18" style="fill:none;stroke:#171640;stroke-linecap:round;stroke-linejoin:round;stroke-width:8px"/><polyline points="173.38 68.13 141.4 83.05 109.42 68.13" style="fill:none;stroke:#49e1f2;stroke-linecap:round;stroke-miterlimit:10;stroke-width:8px"/><polygon points="173.83 67.92 141.4 52.8 108.98 67.92 108.98 109.13 141.4 124.24 173.83 109.13 173.83 67.92" style="fill:none;stroke:#49e1f2;stroke-linecap:round;stroke-miterlimit:10;stroke-width:8px"/><line x1="141.4" y1="83.21" x2="141.4" y2="123.8" style="fill:none;stroke:#49e1f2;stroke-linecap:round;stroke-miterlimit:10;stroke-width:8px"/><polyline points="140.08 30.36 85.97 55.59 31.85 30.35" style="fill:none;stroke:#49e1f2;stroke-linecap:round;stroke-miterlimit:10;stroke-width:8px"/><polyline points="140.85 40.24 140.85 30 85.97 4.41 31.09 30 31.09 99.73 85.97 125.31 99.75 118.89" style="fill:none;stroke:#49e1f2;stroke-linecap:round;stroke-miterlimit:10;stroke-width:8px"/><line x1="85.97" y1="55.87" x2="85.97" y2="124.57" style="fill:none;stroke:#49e1f2;stroke-linecap:round;stroke-miterlimit:10;stroke-width:8px"/></svg>